PathFileType	4	(X/Y/Z)	C:/Users/opensim2020/Desktop/walking_exp_matlab/subject03_walking14_straight_03.trc																																																																																																																																											
DataRate	CameraRate	NumFrames	NumMarkers	Units	OrigDataRate	OrigDataStartFrame	OrigNumFrames																																																																																																																																							
100	100	5	47	mm	100	1689	215																																																																																																																																							
Frame#	Time	LFHD			RFHD			LBHD			RBHD			C7			T10			CLAV			STRN			RBAK			LSHO			LUPA			LELB			LFRM			LWRA			LWRB			LFIN			RSHO			RUPA			RELB			RFRM			RWRA			RWRB			RFIN			LASI			RASI			LPSI			RPSI			LTHI			LKNE			LTIB			LANK			LHEE			LTOE			RTHI			RKNE			RTIB			RANK			RHEE			RTOE			*39			*40			*41			*42			*43			*44			*45			*46		
		X1	Y1	Z1	X2	Y2	Z2	X3	Y3	Z3	X4	Y4	Z4	X5	Y5	Z5	X6	Y6	Z6	X7	Y7	Z7	X8	Y8	Z8	X9	Y9	Z9	X10	Y10	Z10	X11	Y11	Z11	X12	Y12	Z12	X13	Y13	Z13	X14	Y14	Z14	X15	Y15	Z15	X16	Y16	Z16	X17	Y17	Z17	X18	Y18	Z18	X19	Y19	Z19	X20	Y20	Z20	X21	Y21	Z21	X22	Y22	Z22	X23	Y23	Z23	X24	Y24	Z24	X25	Y25	Z25	X26	Y26	Z26	X27	Y27	Z27	X28	Y28	Z28	X29	Y29	Z29	X30	Y30	Z30	X31	Y31	Z31	X32	Y32	Z32	X33	Y33	Z33	X34	Y34	Z34	X35	Y35	Z35	X36	Y36	Z36	X37	Y37	Z37	X38	Y38	Z38	X39	Y39	Z39	X40	Y40	Z40	X41	Y41	Z41	X42	Y42	Z42	X43	Y43	Z43	X44	Y44	Z44	X45	Y45	Z45	X46	Y46	Z46	X47	Y47	Z47
																																																																																																																																														
108	1.07	-183.9211	1617.39038	1369.23047	-178.0188	1620.49487	1502.24219	-301.69788	1552.51965	1380.05737	-291.25128	1555.97546	1510.38232	-316.67706	1409.33606	1417.19543	-359.76453	1098.84619	1405.56335	-195.45837	1331.54883	1426.45728	-155.0381	1165.93396	1414.78662	-381.69931	1232.06433	1495.09985	-222.21111	1378.93469	1271.40845	-170.05214	1201.93018	1190.56458	-111.5465	1093.70349	1180.93811	-23.04777	1001.67365	1200.96448	49.41734	917.09454	1250.53308	40.74194	906.90851	1196.68103	102.32922	856.49207	1217.78113	-262.06339	1348.61853	1581.04102	-298.12543	1129.19287	1649.60242	-300.44501	1016.57678	1665.474	-309.48618	879.78064	1672.24866	-292.99954	778.52783	1644.40503	-331.37109	781.52887	1682.57471	-320.87396	707.23315	1678.12244	-199.18541	930.61407	1291.81787	-200.94965	929.63989	1529.10767	-360.02679	961.10199	1342.83569	-361.58432	959.99133	1490.91797	-300.23853	635.94098	1257.17163	-335.85034	462.80893	1296.46143	-432.50375	287.62875	1293.78015	-501.42001	87.75529	1336.42078	-548.64758	60.9603	1372.57581	-356.69165	34.22727	1359.76489	-182.51373	642.88983	1577.9696	-100.41472	484.04926	1542.18335	-104.72581	292.98318	1546.63196	-84.545	77.07037	1501.86694	-122.58683	41.10362	1447.14075	55.14521	56.2146	1488.45447	NaN	NaN	NaN	-273.0488	1663.28491	1426.93091	NaN	NaN	NaN	NaN	NaN	NaN	NaN	NaN	NaN	NaN	NaN	NaN	NaN	NaN	NaN	NaN	NaN	NaN
109	1.08	-170.32559	1615.47205	1370.15015	-164.39027	1618.41003	1503.24365	-288.25787	1550.69006	1380.92664	-277.73303	1554.02197	1511.27075	-303.30643	1407.47241	1417.86719	-346.6181	1096.91016	1406.66174	-182.09346	1329.5708	1426.85156	-141.80847	1163.91907	1414.60547	-367.93225	1229.92139	1495.46277	-209.03886	1377.34656	1272.06458	-154.95996	1201.76624	1191.23389	-94.48613	1094.76758	1181.80054	-3.81923	1005.34961	1202.50598	71.01466	923.80884	1253.20605	62.79066	912.67938	1199.59717	126.04771	864.77161	1221.38928	-248.5495	1346.33569	1581.48584	-286.72119	1127.19739	1649.87244	-290.11343	1014.51245	1665.34583	-300.39117	877.77759	1671.89783	-285.08109	776.42413	1643.82947	-323.45245	779.75616	1682.04248	-314.0824	705.20221	1677.2207	-186.98636	928.77814	1291.67175	-186.52708	927.29877	1529.04797	-347.52917	958.9317	1344.31909	-347.54865	957.7804	1492.43896	-290.87616	635.27698	1257.14465	-329.00836	462.3457	1296.38623	-428.31699	288.70584	1293.98083	-500.32462	89.68105	1336.53723	-548.10687	63.75972	1372.59753	-356.5994	34.17582	1359.74622	-170.3736	639.89496	1578.84814	-86.60423	482.08371	1542.20056	-81.21426	292.44928	1547.9408	-48.64074	77.83926	1504.53333	-85.12	40.30165	1449.92957	92.18531	60.10181	1490.29407	NaN	NaN	NaN	-259.27878	1660.90247	1427.54773	NaN	NaN	NaN	NaN	NaN	NaN	NaN	NaN	NaN	NaN	NaN	NaN	NaN	NaN	NaN	NaN	NaN	NaN
110	1.09	-156.64078	1613.54358	1371.12842	-150.78793	1616.37451	1504.1936	-274.57629	1548.95093	1381.82922	-264.17438	1552.06628	1512.20203	-289.77274	1405.53247	1418.53149	-333.43988	1095.13135	1407.88501	-168.63577	1327.57568	1427.21484	-128.51357	1161.94678	1414.43384	-354.22498	1227.75891	1496.05164	-195.7289	1375.78284	1272.85193	-140.07767	1201.41248	1191.91223	-78.03477	1095.40942	1182.52014	14.75346	1008.95288	1204.1333	91.7354	930.29199	1255.93542	84.12591	918.36035	1202.49988	148.88509	872.97046	1225.03943	-234.92819	1344.12927	1582.04297	-274.74445	1125.33264	1649.91907	-279.33636	1012.51569	1665.38574	-291.27478	875.98053	1671.54883	-276.76257	774.33832	1643.29163	-315.0993	778.08142	1681.48633	-306.77661	703.38776	1676.27661	-174.6488	927.03491	1291.63806	-171.81685	924.9624	1529.04382	-334.59641	956.51001	1345.94385	-333.41751	955.45209	1494.14282	-281.16626	634.59418	1257.33875	-321.51074	462.04916	1296.2594	-423.53442	289.70547	1293.91309	-499.15005	92.04721	1336.6167	-547.24078	66.84098	1372.61414	-356.44025	34.07379	1359.44434	-158.28435	636.71912	1580.60742	-72.68096	479.97086	1542.30432	-58.41969	292.27997	1549.27014	-14.71727	79.16512	1507.69519	-49.98457	40.10873	1452.80908	126.71992	65.51881	1492.38049	NaN	NaN	NaN	-244.65572	1659.03662	1427.48218	NaN	NaN	NaN	NaN	NaN	NaN	NaN	NaN	NaN	NaN	NaN	NaN	NaN	NaN	NaN	NaN	NaN	NaN
111	1.1	-142.91086	1611.7821	1372.17505	-137.02039	1614.40527	1505.30383	-260.97711	1547.18958	1382.8241	-250.52132	1550.14014	1513.17322	-276.20465	1403.74475	1419.39783	-319.90945	1093.20715	1409.16223	-155.00049	1325.66406	1427.71936	-114.95179	1160.01794	1414.34033	-340.44339	1225.75354	1496.74341	-182.27234	1374.32874	1273.72839	-125.23505	1200.87476	1192.58179	-62.3689	1095.89526	1183.24304	32.68565	1012.38708	1205.72754	111.62126	936.62488	1258.63855	104.6283	923.9303	1205.3667	170.79974	880.99042	1228.63196	-221.16302	1341.9895	1582.63525	-262.68985	1123.3562	1650.25305	-268.16083	1010.5769	1665.41992	-281.23138	874.08276	1671.36633	-267.95728	772.36835	1642.73047	-306.21869	776.40173	1681.07678	-298.93564	701.63757	1675.36902	-162.21506	925.159	1291.63208	-156.92154	922.87457	1529.05664	-321.8273	954.48285	1347.87024	-318.90488	953.11914	1495.97302	-271.12567	633.96692	1257.5011	-313.3063	461.56595	1295.96484	-418.41681	290.87558	1293.9386	-497.77301	94.64236	1336.45435	-546.25513	70.31714	1372.49951	-356.33435	33.93893	1359.4928	-146.38469	633.41742	1582.28955	-58.46791	477.92908	1542.55969	-36.5982	292.34607	1550.69946	15.50334	80.94279	1510.32031	-17.52855	40.43875	1455.50049	158.46294	71.91511	1494.58215	NaN	NaN	NaN	-231.98386	1657.70972	1429.96558	NaN	NaN	NaN	NaN	NaN	NaN	NaN	NaN	NaN	NaN	NaN	NaN	NaN	NaN	NaN	NaN	NaN	NaN
112	1.11	-129.21745	1610.04321	1373.35522	-123.33693	1612.55029	1506.4668	-247.23705	1545.53235	1383.81885	-236.79411	1548.28589	1514.1969	-262.40118	1401.95874	1420.20813	-306.38409	1091.46082	1410.51978	-141.25218	1323.86133	1428.28137	-101.25375	1158.19421	1414.39746	-326.56635	1223.81262	1497.4552	-168.71176	1372.87073	1274.66211	-110.57948	1200.3667	1193.30579	-47.01413	1096.21594	1183.90759	49.91627	1015.59607	1207.21057	130.73749	942.83221	1261.09082	124.50022	929.38324	1208.41064	191.72722	888.81555	1232.12842	-207.18703	1339.90759	1583.27368	-250.25624	1121.51086	1650.48792	-256.48267	1008.72198	1665.57446	-271.02335	872.20581	1671.02222	-258.65918	770.49249	1642.27258	-296.8945	774.84021	1680.66052	-290.70935	699.7901	1674.45166	-149.3829	923.51941	1291.70361	-141.84261	921.00189	1529.2074	-308.61478	952.24066	1349.88	-304.27173	950.84637	1497.94116	-260.65213	633.2691	1257.58142	-304.45139	460.90079	1295.69373	-412.80038	292.15106	1293.88049	-496.10126	97.41373	1336.17993	-544.9726	74.18124	1372.20105	-356.12234	33.82427	1359.43994	-134.01755	630.34442	1584.05884	-43.92359	476.17374	1542.98999	-16.41244	292.49976	1551.86267	43.50878	82.7198	1512.42407	11.88354	40.87753	1457.59583	187.11827	78.09126	1496.60693	NaN	NaN	NaN	-217.1832	1655.91235	1430.16052	NaN	NaN	NaN	NaN	NaN	NaN	NaN	NaN	NaN	NaN	NaN	NaN	NaN	NaN	NaN	NaN	NaN	NaN
